# xmcd
#
# Track frame offsets:
#	150
#	10776
#	30412
#	50684
#	76285
#	98469
#	118322
#	139746
#	164697
#	182895
#	186708
#
# Disc length: 2726 seconds
#
# Revision: 9
# Processed by: cddbd v1.5.2PL0 Copyright (c) Steve Scherf et al.
# Submitted via: Jack! The Knife 20 Magnifico
#
DISCID=940aa40b
DTITLE=Grave Digger - Clash Of The Gods
DYEAR=2012
DGENRE=Metal
TTITLE0=Charon (Fährmann Des Todes)
TTITLE1=God Of Terror
TTITLE2=Hell Dog
TTITLE3=Medusa
TTITLE4=Clash Of The Gods
TTITLE5=Death Angel and The Grave Digger
TTITLE6=Walls Of Sorrow
TTITLE7=Call Of The Sirens
TTITLE8=Warriors Revenge
TTITLE9=With The Wind
TTITLE10=Home At Last
EXTD=Chris Boltendahl
EXTT0=Boltendahl, Ritt
EXTT1=Boltendahl, Ritt
EXTT2=Boltendahl, Ritt
EXTT3=Boltendahl, Ritt
EXTT4=Boltendahl, Ritt
EXTT5=Boltendahl, Ritt
EXTT6=Boltendahl, Ritt
EXTT7=Boltendahl, Ritt
EXTT8=Boltendahl, Ritt
EXTT9=Boltendahl, Ritt
EXTT10=Boltendahl, Ritt
PLAYORDER=
